<svg xmlns="http://www.w3.org/2000/svg" width="32" height="32" shape-rendering="crispEdges">
  <defs>
    <style>
      .p0{fill:#000000}
      .p1{fill:#c0c0c0}  /* steel light */
      .p2{fill:#8a8a8a}  /* steel mid */
      .g1{fill:#f7d879}  /* gold */
      .g2{fill:#d3a94b}
    </style>
  </defs>
  <!-- ring -->
  <rect x="5" y="5" width="12" height="12" class="p0"/>
  <rect x="6" y="6" width="10" height="10" class="p2"/>
  <rect x="8" y="8" width="6"  height="6"  class="p1"/>

  <!-- small chain -->
  <rect x="15" y="12" width="3" height="2" class="p0"/>
  <rect x="18" y="13" width="2" height="2" class="p0"/>

  <!-- key 1 (gold) -->
  <rect x="19" y="14" width="8" height="3" class="p0"/>
  <rect x="20" y="15" width="6" height="1" class="g2"/>
  <rect x="26" y="15" width="2" height="3" class="p0"/>
  <rect x="27" y="16" width="1" height="1" class="g2"/>

  <!-- head of key 1 -->
  <rect x="17" y="13" width="4" height="5" class="p0"/>
  <rect x="18" y="14" width="2" height="3" class="g1"/>

  <!-- key 2 (steel) -->
  <rect x="17" y="19" width="10" height="3" class="p0"/>
  <rect x="18" y="20" width="8"  height="1" class="p2"/>
  <rect x="24" y="20" width="2"  height="3" class="p0"/>
  <rect x="25" y="21" width="1"  height="1" class="p2"/>

  <!-- head of key 2 -->
  <rect x="14" y="18" width="5" height="5" class="p0"/>
  <rect x="15" y="19" width="3" height="3" class="p1"/>
</svg>
